<svg width="1759" height="100" viewBox="0 0 1759 100" fill="none" xmlns="http://www.w3.org/2000/svg">
<g clip-path="url(#clip0_12_48)">
<path opacity="0.3" d="M793.309 43.3C1043.09 56 1672.81 120 1672.81 120V124H-86.1909V39.3C293.753 16 543.531 30.7 793.309 43.3Z" fill="#8C5DFF"/>
<path opacity="0.5" d="M793.309 58.3C1043.09 71 1672.81 120 1672.81 120V124H-86.1909V61.3C293.753 38 543.531 45.7 793.309 58.3Z" fill="#8C5DFF"/>
<path d="M793.309 73.3C1043.09 86 1672.81 120 1672.81 120V124H-86.1909V83.3C293.753 60 543.531 60.7 793.309 73.3Z" fill="#8C5DFF"/>
</g>
<defs>
<clipPath id="clip0_12_48">
<rect width="1759" height="100" fill="white" transform="matrix(-1 0 0 -1 1759 100)"/>
</clipPath>
</defs>
</svg>
